Coordinates
version=1
nRows=17
nColumns=33
inDegrees=yes

Units are S.I. units (second, meters, Newtons, ...)
Angles are in degrees.

endheader
time	ground_thorax_rot_x	ground_thorax_rot_y	ground_thorax_rot_z	ground_thorax_tx	ground_thorax_ty	ground_thorax_tz	clav_prot_r	clav_elev_r	scapula_abduction_r	scapula_elevation_r	scapula_upward_rot_r	scapula_winging_r	shoulder_elv_r	plane_of_elev_r	axial_rot_r	elbow_flexion_r	pro_sup_r	wrist_flex_r	wrist_dev_r	clav_prot_l	clav_elev_l	scapula_abduction_l	scapula_elevation_l	scapula_upward_rot_l	scapula_winging_l	shoulder_elv_l	plane_of_elev_l	axial_rot_l	elbow_flexion_l	pro_sup_l	wrist_flex_l	wrist_dev_l
      6.07000000	    -34.76972539	    -22.57346224	     28.77821269	   -135.56791558	    799.26991893	      3.64257393	      9.37289311	    -45.00000000	     39.41002504	    -45.00000000	    -45.00000000	   3141.42296422	   -468.35128575	    148.33579649	   -105.89397147	   1103.07048815	    188.29686898	      9.54381087	      3.04785213	     16.01724745	     38.29391927	    -37.95606601	    -45.00000000	    -45.00000000	  -2077.49765208	    982.56292161	    134.56620847	   -168.53245851	   2168.57359899	     22.14710129	     11.63215939	    -20.34050635
      6.08000000	    -34.33196455	    -23.21928743	     29.70219725	   -130.42195058	    796.61866634	      3.44007888	      9.60187537	    -45.00000000	     39.50707184	    -45.00000000	    -45.00000000	   3141.69148177	   -468.72427948	    148.51393214	   -105.00267000	   1102.90571150	    189.00401340	      9.51847387	      2.81813708	     15.89059478	     38.26641603	    -37.66805849	    -45.00000000	    -45.00000000	  -2077.73563973	    982.30009119	    134.47228287	   -168.66631061	   2168.34294607	     23.05405108	     11.80446009	    -20.27535442
      6.09000000	    -33.90481459	    -23.77609202	     30.65916572	   -125.33058963	    793.98870628	      3.24887636	      9.56057988	    -45.00000000	     39.42857352	    -45.00000000	    -45.00000000	   3141.96503397	   -469.10527125	    148.73746761	   -104.21672790	   1102.69356330	    189.59603834	      9.51501839	      2.53542860	     15.87167759	     38.33050645	    -37.44862144	    -45.00000000	    -45.00000000	  -2078.17655188	    982.03407333	    134.58527935	   -168.76230552	   2168.15021751	     24.03406145	     11.91761238	    -20.21910965
      6.10000000	    -33.37636658	    -24.50056328	     31.82581508	   -120.31298611	    791.40735057	      3.07334738	     10.32068384	    -45.00000000	     39.63699633	    -45.00000000	    -45.00000000	   3141.85331961	   -469.88708990	    148.81655157	   -103.03216133	   1102.34491073	    189.76787778	      9.60191331	      2.07780989	     14.80335858	     37.99196113	    -37.08222157	    -45.00000000	    -45.00000000	  -2078.45478219	    981.77369661	    134.59617668	   -168.99941177	   2167.91009989	     24.94540698	     12.23231126	    -20.16252671
      6.11000000	    -32.83636622	    -25.11278343	     32.88650091	   -115.38884485	    788.89730541	      2.91889008	     10.28289168	    -45.00000000	     39.60434794	    -45.00000000	    -45.00000000	   3142.03622417	   -470.30613306	    149.06248798	   -102.20529404	   1102.14773851	    189.78957821	      9.66434890	      1.69882619	     14.70685282	     37.95574467	    -36.73777749	    -45.00000000	    -45.00000000	  -2078.92862724	    981.44812064	    134.77088690	   -169.21573912	   2167.66064282	     25.88848274	     12.31918530	    -20.08968409
      6.12000000	    -32.55874597	    -25.31792179	     33.48095802	   -110.57713232	    786.47861666	      2.79287220	      9.39346666	    -45.00000000	     39.19893556	    -45.00000000	    -45.00000000	   3142.68846913	   -470.30056003	    149.49284667	   -101.81895001	   1102.12145154	    189.72830038	      9.68174494	      1.58417040	     15.86975029	     38.37045839	    -36.77670757	    -45.00000000	    -45.00000000	  -2079.30872963	    981.04436248	    134.78502208	   -169.04006054	   2167.42302285	     27.07924199	     12.16251284	    -20.07474253
      6.13000000	    -32.09263084	    -25.79405931	     34.40131426	   -105.89629795	    784.16806273	      2.70284730	      9.34596036	    -45.00000000	     39.10386382	    -45.00000000	    -45.00000000	   3142.89205179	   -470.68995860	    149.76188168	   -101.14908796	   1101.93452723	    189.19614430	      9.81211423	      1.20400313	     15.85036252	     38.36811604	    -36.51250365	    -45.00000000	    -45.00000000	  -2079.74304739	    980.71742972	    134.86292761	   -168.87948074	   2167.12591611	     28.33023883	     12.21844201	    -20.06745895
      6.14000000	    -31.60990808	    -26.33082873	     35.32218323	   -101.36844871	    781.98239530	      2.65664840	      9.62854208	    -45.00000000	     39.17441424	    -45.00000000	    -45.00000000	   3143.10832848	   -471.21935165	    150.07196196	   -100.20432082	   1101.69682001	    188.22421785	     10.02140182	      0.82981677	     15.52945806	     38.35159851	    -36.07405525	    -45.00000000	    -45.00000000	  -2080.09794992	    980.54856577	    134.78749127	   -168.70621177	   2166.73084160	     29.41829724	     12.37204521	    -20.03765133
      6.15000000	    -31.12541437	    -26.83582322	     36.25150952	    -97.00222943	    779.93061260	      2.65997585	      9.70566592	    -45.00000000	     39.10382562	    -45.00000000	    -45.00000000	   3143.25790939	   -471.67362042	    150.34531827	    -99.55147010	   1101.52232772	    186.89940098	     10.27574695	      0.40535204	     15.36548710	     38.29159913	    -35.73270168	    -45.00000000	    -45.00000000	  -2080.44827982	    980.22439229	    134.84373116	   -168.48748829	   2166.41831141	     30.48665006	     12.42496435	    -20.01165634
      6.16000000	    -30.75528977	    -27.13743510	     36.95994994	    -92.81051938	    778.02490768	      2.71822693	      9.30254712	    -45.00000000	     38.82400504	    -45.00000000	    -45.00000000	   3143.57766030	   -471.85067124	    150.63211133	    -99.31097668	   1101.56981720	    184.68882442	     10.60030783	      0.10926750	     15.73897364	     38.40997527	    -35.59826929	    -45.00000000	    -45.00000000	  -2080.83238810	    979.84145261	    134.89912672	   -168.17301128	   2166.07483386	     31.74798320	     12.36926307	    -20.00996437
      6.17000000	    -30.14444549	    -27.78212437	     38.00706391	    -88.80477875	    776.27654502	      2.83435908	      9.95958211	    -45.00000000	     39.10792678	    -45.00000000	    -45.00000000	   3143.39266563	   -472.53442917	    150.80272812	    -98.71521433	   1101.37367169	    182.42513103	     11.07736590	     -0.51323077	     14.88966712	     38.06081409	    -35.12735025	    -45.00000000	    -45.00000000	  -2081.15418810	    979.51023443	    134.94446549	   -167.88948359	   2165.59931234	     32.68227484	     12.50260858	    -19.94154328
      6.18000000	    -29.72044758	    -28.14351050	     38.81578771	    -84.99531449	    774.69680390	      3.00999902	      9.79443999	    -45.00000000	     38.96942616	    -45.00000000	    -45.00000000	   3143.48630497	   -472.85328737	    151.04755200	    -98.56192559	   1101.34161261	    179.58249783	     11.57782577	     -0.84714997	     14.97726785	     38.03716781	    -34.84593419	    -45.00000000	    -45.00000000	  -2081.54304799	    979.20234891	    134.96970966	   -167.47777386	   2165.16182507	     33.65807349	     12.48579601	    -19.86936633
      6.19000000	    -29.51044243	    -28.27548213	     39.15239604	    -81.38928959	    773.29381557	      3.24491264	      9.28632383	    -45.00000000	     38.63662296	    -45.00000000	    -45.00000000	   3143.91681768	   -472.49470594	    149.60627833	   -133.81494837	   1088.68796518	     29.41468507	     17.51566205	     14.04355921	     15.44944973	     38.28808189	    -34.59955156	    -45.00000000	    -45.00000000	  -2082.17414824	    979.61290786	    134.22235352	   -162.11991041	   2164.23073726	     39.35364442	     12.17591986	    -20.48353680
      6.20000000	    -28.92264009	    -28.83601831	     40.07347937	    -77.99837866	    772.07819545	      3.53364349	      9.76995023	    -45.00000000	     39.01416928	    -45.00000000	    -45.00000000	   3143.81781109	   -472.95523792	    149.81784761	   -133.91365792	   1088.35289500	     30.05757741	     17.53038694	     14.49780604	     14.85047160	     37.95794452	    -34.19605931	    -45.00000000	    -45.00000000	  -2082.41664047	    979.12778741	    134.45486539	   -163.09907250	   2163.89671130	     39.22649556	     12.19145556	    -20.26038059
      6.21000000	    -28.61718711	    -29.17991079	     40.70989629	    -74.83218113	    771.05222188	      3.87258528	      9.61372724	    -45.00000000	     38.86630738	    -45.00000000	    -45.00000000	   3143.99958451	   -473.27131848	    150.12708532	   -133.83037375	   1088.00864808	     30.77863069	     17.50109357	     14.58297092	     15.01640999	     37.95697936	    -33.98595943	    -45.00000000	    -45.00000000	  -2082.71404538	    978.83891640	    134.59238996	   -163.34925188	   2163.55010905	     39.31629237	     12.12898590	    -20.03246237
      6.22000000	    -28.36295310	    -29.48790802	     41.23428293	    -71.90084679	    770.21901732	      4.25410150	      9.55986760	    -45.00000000	     38.75544404	    -45.00000000	    -45.00000000	   3144.15707283	   -473.58043004	    150.37952700	   -133.65059480	   1087.69312120	     31.53514804	     17.49660125	     14.66275474	     15.02202712	     37.97048243	    -33.79388618	    -45.00000000	    -45.00000000	  -2083.00909167	    978.62420713	    134.64714833	   -163.25257935	   2163.14996121	     39.65722811	     12.07522022	    -19.86043552
      6.23000000	    -28.05991188	    -29.80696361	     41.72218542	    -69.21342457	    769.57562016	      4.66964959	      9.52836114	    -45.00000000	     38.71663488	    -45.00000000	    -45.00000000	   3144.25862624	   -473.77700664	    150.58827101	   -133.43493871	   1087.51856070	     32.20580062	     17.50647812	     14.70696289	     15.04434538	     37.93105645	    -33.56227869	    -45.00000000	    -45.00000000	  -2083.33259469	    978.44144197	    134.70437986	   -162.97731817	   2162.72528420	     40.18350496	     11.98307353	    -19.69482094
